{
 "cells": [
  {
   "cell_type": "code",
   "execution_count": 4,
   "metadata": {},
   "outputs": [
    {
     "name": "stderr",
     "output_type": "stream",
     "text": [
      "ffmpeg version 6.0 Copyright (c) 2000-2023 the FFmpeg developers\n",
      "  built with Apple clang version 15.0.0 (clang-1500.0.40.1)\n",
      "  configuration: --prefix=/opt/homebrew/Cellar/ffmpeg/6.0_1 --enable-shared --enable-pthreads --enable-version3 --cc=clang --host-cflags= --host-ldflags='-Wl,-ld_classic' --enable-ffplay --enable-gnutls --enable-gpl --enable-libaom --enable-libaribb24 --enable-libbluray --enable-libdav1d --enable-libjxl --enable-libmp3lame --enable-libopus --enable-librav1e --enable-librist --enable-librubberband --enable-libsnappy --enable-libsrt --enable-libsvtav1 --enable-libtesseract --enable-libtheora --enable-libvidstab --enable-libvmaf --enable-libvorbis --enable-libvpx --enable-libwebp --enable-libx264 --enable-libx265 --enable-libxml2 --enable-libxvid --enable-lzma --enable-libfontconfig --enable-libfreetype --enable-frei0r --enable-libass --enable-libopencore-amrnb --enable-libopencore-amrwb --enable-libopenjpeg --enable-libspeex --enable-libsoxr --enable-libzmq --enable-libzimg --disable-libjack --disable-indev=jack --enable-videotoolbox --enable-audiotoolbox --enable-neon\n",
      "  libavutil      58.  2.100 / 58.  2.100\n",
      "  libavcodec     60.  3.100 / 60.  3.100\n",
      "  libavformat    60.  3.100 / 60.  3.100\n",
      "  libavdevice    60.  1.100 / 60.  1.100\n",
      "  libavfilter     9.  3.100 /  9.  3.100\n",
      "  libswscale      7.  1.100 /  7.  1.100\n",
      "  libswresample   4. 10.100 /  4. 10.100\n",
      "  libpostproc    57.  1.100 / 57.  1.100\n",
      "Input #0, mov,mp4,m4a,3gp,3g2,mj2, from '/Users/gianmariaricci/develop/montaggi/UpdatingSSH.mp4':\n",
      "  Metadata:\n",
      "    major_brand     : mp42\n",
      "    minor_version   : 1\n",
      "    compatible_brands: isommp41mp42\n",
      "    creation_time   : 2023-11-14T17:59:32.000000Z\n",
      "  Duration: 00:04:00.87, start: 0.000000, bitrate: 1623 kb/s\n",
      "  Stream #0:0[0x1](und): Video: h264 (Main) (avc1 / 0x31637661), yuv420p(tv, bt709, progressive), 1920x1080, 1502 kb/s, 30 fps, 30 tbr, 600 tbn (default)\n",
      "    Metadata:\n",
      "      creation_time   : 2023-11-14T17:59:32.000000Z\n",
      "      handler_name    : Core Media Video\n",
      "      vendor_id       : [0][0][0][0]\n",
      "  Stream #0:1[0x2](und): Audio: aac (LC) (mp4a / 0x6134706D), 44100 Hz, stereo, fltp, 118 kb/s (default)\n",
      "    Metadata:\n",
      "      creation_time   : 2023-11-14T17:59:32.000000Z\n",
      "      handler_name    : Core Media Audio\n",
      "      vendor_id       : [0][0][0][0]\n",
      "Stream mapping:\n",
      "  Stream #0:1 -> #0:0 (aac (native) -> pcm_s16le (native))\n",
      "Press [q] to stop, [?] for help\n",
      "Output #0, wav, to '/Users/gianmariaricci/develop/montaggi/UpdatingSSH.wav':\n",
      "  Metadata:\n",
      "    major_brand     : mp42\n",
      "    minor_version   : 1\n",
      "    compatible_brands: isommp41mp42\n",
      "    ISFT            : Lavf60.3.100\n",
      "  Stream #0:0(und): Audio: pcm_s16le ([1][0][0][0] / 0x0001), 44100 Hz, stereo, s16, 1411 kb/s (default)\n",
      "    Metadata:\n",
      "      creation_time   : 2023-11-14T17:59:32.000000Z\n",
      "      handler_name    : Core Media Audio\n",
      "      vendor_id       : [0][0][0][0]\n",
      "      encoder         : Lavc60.3.100 pcm_s16le\n",
      "size=   41496kB time=00:04:00.85 bitrate=1411.3kbits/s speed= 957x    \n",
      "video:0kB audio:41496kB subtitle:0kB other streams:0kB global headers:0kB muxing overhead: 0.000184%\n"
     ]
    }
   ],
   "source": [
    "import subprocess\n",
    "\n",
    "def extract_audio(video_path, audio_path):\n",
    "    command = f'ffmpeg -i {video_path} -vn -acodec pcm_s16le -ar 44100 -ac 2 {audio_path}'\n",
    "    subprocess.call(command, shell=True)\n",
    "\n",
    "# Example usage\n",
    "video_path = '/Users/gianmariaricci/develop/montaggi/UpdatingSSH.mp4'\n",
    "audio_path = '/Users/gianmariaricci/develop/montaggi/UpdatingSSH.wav'\n",
    "extract_audio(video_path, audio_path)\n"
   ]
  }
 ],
 "metadata": {
  "kernelspec": {
   "display_name": "langchain_experiments",
   "language": "python",
   "name": "langchain_experiments"
  },
  "language_info": {
   "codemirror_mode": {
    "name": "ipython",
    "version": 3
   },
   "file_extension": ".py",
   "mimetype": "text/x-python",
   "name": "python",
   "nbconvert_exporter": "python",
   "pygments_lexer": "ipython3",
   "version": "3.11.6"
  }
 },
 "nbformat": 4,
 "nbformat_minor": 2
}
